# 3ds Max Wavefront OBJ Exporter v0.97b - (c)2007 guruware
# File Created: 30.10.2020 17:02:02

mtllib cylinderdeobj.mtl

#
# object Cylinder001
#

v  0.2500 0.4330 0.0000
v  0.5000 0.0000 0.0000
v  0.4698 -0.1710 0.0000
v  0.0868 0.4924 0.0000
v  0.4698 0.1710 0.0000
v  0.4698 0.1710 1.0000
v  0.5000 0.0000 1.0000
v  0.3830 0.3214 0.0000
v  0.3830 0.3214 1.0000
v  0.2500 0.4330 1.0000
v  0.0868 0.4924 1.0000
v  -0.0868 0.4924 0.0000
v  -0.0868 0.4924 1.0000
v  -0.2500 0.4330 0.0000
v  -0.2500 0.4330 1.0000
v  -0.3830 0.3214 0.0000
v  -0.3830 0.3214 1.0000
v  -0.4698 0.1710 0.0000
v  -0.4698 0.1710 1.0000
v  -0.5000 0.0000 0.0000
v  -0.5000 0.0000 1.0000
v  -0.4698 -0.1710 0.0000
v  -0.4698 -0.1710 1.0000
v  -0.3830 -0.3214 0.0000
v  -0.3830 -0.3214 1.0000
v  -0.2500 -0.4330 0.0000
v  -0.2500 -0.4330 1.0000
v  -0.0868 -0.4924 0.0000
v  -0.0868 -0.4924 1.0000
v  0.0868 -0.4924 0.0000
v  0.0868 -0.4924 1.0000
v  0.2500 -0.4330 0.0000
v  0.2500 -0.4330 1.0000
v  0.3830 -0.3214 0.0000
v  0.3830 -0.3214 1.0000
v  0.4698 -0.1710 1.0000
# 36 vertices

vn 0.0000 0.0000 -1.0000
vn 0.9397 0.3420 0.0000
vn 1.0000 0.0000 0.0000
vn 0.7660 0.6428 0.0000
vn 0.5000 0.8660 0.0000
vn 0.1736 0.9848 0.0000
vn -0.1736 0.9848 0.0000
vn -0.5000 0.8660 0.0000
vn -0.7660 0.6428 0.0000
vn -0.9397 0.3420 0.0000
vn -1.0000 0.0000 0.0000
vn -0.9397 -0.3420 0.0000
vn -0.7660 -0.6428 0.0000
vn -0.5000 -0.8660 0.0000
vn -0.1736 -0.9848 0.0000
vn 0.1736 -0.9848 0.0000
vn 0.5000 -0.8660 0.0000
vn 0.7660 -0.6428 0.0000
vn 0.9397 -0.3420 0.0000
vn 0.0000 0.0000 1.0000
# 20 vertex normals

vt 0.9167 0.0000 0.0000
vt 0.7500 0.0000 0.0000
vt 0.3400 0.0000 0.0000
vt 0.9722 0.0000 0.0000
vt 0.8056 0.0000 0.0000
vt 0.8056 1.0000 0.0000
vt 0.7500 1.0000 0.0000
vt 0.8611 0.0000 0.0000
vt 0.8611 1.0000 0.0000
vt 0.9167 1.0000 0.0000
vt 0.9722 1.0000 0.0000
vt 0.0278 0.0000 0.0000
vt 0.0278 1.0000 0.0000
vt -0.0278 1.0000 0.0000
vt -0.0278 0.0000 0.0000
vt 0.0833 0.0000 0.0000
vt 0.0833 1.0000 0.0000
vt 0.1389 0.0000 0.0000
vt 0.1389 1.0000 0.0000
vt 0.1944 0.0000 0.0000
vt 0.1944 1.0000 0.0000
vt 0.2500 0.0000 0.0000
vt 0.2500 1.0000 0.0000
vt 0.3056 0.0000 0.0000
vt 0.3056 1.0000 0.0000
vt 0.3611 0.0000 0.0000
vt 0.3611 1.0000 0.0000
vt 0.4167 0.0000 0.0000
vt 0.4167 1.0000 0.0000
vt 0.4722 0.0000 0.0000
vt 0.4722 1.0000 0.0000
vt 0.5278 0.0000 0.0000
vt 0.5278 1.0000 0.0000
vt 0.5833 0.0000 0.0000
vt 0.5833 1.0000 0.0000
vt 0.6389 0.0000 0.0000
vt 0.6389 1.0000 0.0000
vt 0.6944 0.0000 0.0000
vt 0.6944 1.0000 0.0000
vt 0.9708 1.0000 0.0000
vt 0.1953 1.0000 0.0000
vt 0.1891 1.0000 0.0000
vt 0.4960 1.0000 0.0000
vt 0.3325 1.0000 0.0000
vt 0.6600 1.0000 0.0000
vt 0.0292 1.0000 0.0000
vt 0.8047 1.0000 0.0000
vt 0.0874 1.0000 0.0000
vt 0.9126 1.0000 0.0000
vt 0.8047 0.0000 0.0000
vt 0.9126 0.0000 0.0000
vt 0.0874 0.0000 0.0000
vt 0.0292 0.0000 0.0000
vt 0.6600 0.0000 0.0000
vt 0.4960 0.0000 0.0000
vt 0.3325 0.0000 0.0000
vt 0.1891 0.0000 0.0000
vt 0.9708 0.0000 0.0000
vt 0.1953 0.0000 0.0000
# 59 texture coords

o Cylinder001
g Cylinder001
usemtl cylinder_wire_177088027
s off
f 1/1/1 2/2/1 3/3/1 4/4/1 
f 5/5/2 6/6/2 7/7/3 2/2/3 
f 8/8/4 9/9/4 6/6/2 5/5/2 
f 1/1/5 10/10/5 9/9/4 8/8/4 
f 4/4/6 11/11/6 10/10/5 1/1/5 
f 12/12/7 13/13/7 11/14/6 4/15/6 
f 14/16/8 15/17/8 13/13/7 12/12/7 
f 16/18/9 17/19/9 15/17/8 14/16/8 
f 18/20/10 19/21/10 17/19/9 16/18/9 
f 20/22/11 21/23/11 19/21/10 18/20/10 
f 22/24/12 23/25/12 21/23/11 20/22/11 
f 24/26/13 25/27/13 23/25/12 22/24/12 
f 26/28/14 27/29/14 25/27/13 24/26/13 
f 28/30/15 29/31/15 27/29/14 26/28/14 
f 30/32/16 31/33/16 29/31/15 28/30/15 
f 32/34/17 33/35/17 31/33/16 30/32/16 
f 34/36/18 35/37/18 33/35/17 32/34/17 
f 3/38/19 36/39/19 35/37/18 34/36/18 
f 2/2/3 7/7/3 36/39/19 3/38/19 
f 13/40/20 35/41/20 36/39/20 11/11/20 
f 25/42/20 27/17/20 21/43/20 23/44/20 
f 27/17/20 29/13/20 19/45/20 21/43/20 
f 29/13/20 31/46/20 17/47/20 19/45/20 
f 31/46/20 33/48/20 15/49/20 17/47/20 
f 33/48/20 35/41/20 13/40/20 15/49/20 
f 10/10/20 11/11/20 36/39/20 7/7/20 
f 9/9/20 10/10/20 7/7/20 6/6/20 
f 16/50/1 14/51/1 32/52/1 30/53/1 
f 18/54/1 16/50/1 30/53/1 28/12/1 
f 20/55/1 18/54/1 28/12/1 26/16/1 
f 22/56/1 20/55/1 26/16/1 24/57/1 
f 14/51/1 12/58/1 34/59/1 32/52/1 
f 12/58/1 4/4/1 3/3/1 34/59/1 
f 5/5/1 2/2/1 1/1/1 8/8/1 
# 34 polygons

